<svg width="197" height="196" viewBox="0 0 197 196" fill="none" xmlns="http://www.w3.org/2000/svg">
<g clip-path="url(#clip0_12_436)">
<path d="M102.471 17.5624C109.473 12.4898 113.102 9.59112 113.486 6.47933C113.573 5.954 113.544 5.41608 113.402 4.903C113.259 4.38992 113.007 3.91399 112.661 3.5083C112.316 3.10262 111.886 2.77691 111.402 2.55385C110.918 2.33078 110.39 2.2157 109.857 2.21661C108.992 2.15596 108.123 2.27629 107.307 2.5699C106.491 2.8635 105.746 3.32392 105.118 3.9217L104.264 2.81339C105.07 2.09075 106.017 1.54327 107.046 1.20571C108.075 0.868149 109.163 0.747879 110.241 0.852537C110.973 0.843982 111.698 0.994597 112.365 1.29391C113.032 1.59323 113.626 2.03406 114.106 2.58577C114.585 3.13748 114.939 3.78682 115.141 4.48865C115.344 5.19049 115.391 5.92797 115.28 6.64984C114.81 10.1453 111.01 13.1718 105.075 17.605C106.143 17.605 107.295 17.605 108.363 17.8608L114.724 18.6707V19.9922L102.471 18.4576V17.5624Z" fill="#BAC98F"/>
<path d="M120.147 11.9357C121.983 6.22366 125.057 3.75128 128.686 4.90221C132.315 6.05315 133.254 9.8896 131.419 15.6017C129.583 21.3137 126.466 24.1271 122.879 22.763C119.293 21.399 118.268 17.6904 120.147 11.9357ZM129.881 15.1328C131.589 9.8896 130.735 6.9057 128.259 6.13841C125.783 5.37111 123.349 7.24671 121.641 12.4472C119.933 17.6478 120.744 20.9727 123.264 21.5695C125.783 22.1662 128.088 20.3333 129.881 15.1328Z" fill="#BAC98F"/>
<path d="M131.547 24.5106C140.086 22.3366 144.355 20.9725 145.85 18.2017C146.155 17.7469 146.353 17.229 146.429 16.6868C146.505 16.1446 146.457 15.5923 146.289 15.0713C146.12 14.5503 145.836 14.0742 145.457 13.6787C145.077 13.2833 144.613 12.9788 144.099 12.7881C143.305 12.4406 142.447 12.2612 141.58 12.2612C140.713 12.2612 139.855 12.4406 139.061 12.7881L138.591 11.5092C139.606 11.1304 140.689 10.9688 141.77 11.0349C142.852 11.101 143.907 11.3933 144.868 11.8929C145.54 12.1555 146.146 12.5614 146.644 13.0823C147.142 13.6032 147.521 14.2265 147.752 14.9086C147.984 15.5907 148.064 16.3152 147.986 17.0312C147.908 17.7473 147.675 18.4378 147.301 19.0543C145.636 22.1661 140.897 23.317 133.809 25.491C134.792 25.9599 135.859 26.4288 136.798 26.9403L142.434 29.839L141.794 31.0325L131.12 25.2352L131.547 24.5106Z" fill="#BAC98F"/>
<path d="M144.654 31.9277C153.194 31.3309 157.89 30.8194 159.897 28.3896C160.262 27.9953 160.537 27.5257 160.7 27.0139C160.864 26.5021 160.913 25.9606 160.843 25.4279C160.774 24.8952 160.588 24.3841 160.299 23.9309C160.01 23.4778 159.625 23.0935 159.171 22.8055C158.469 22.2867 157.664 21.9234 156.81 21.7396C155.956 21.5558 155.072 21.5559 154.218 21.7398V20.3757C155.287 20.1973 156.381 20.2415 157.432 20.5056C158.483 20.7697 159.467 21.248 160.324 21.9103C160.932 22.2969 161.45 22.8105 161.84 23.4157C162.231 24.0209 162.486 24.7033 162.587 25.4162C162.689 26.129 162.634 26.8554 162.428 27.5452C162.221 28.2351 161.868 28.8722 161.391 29.4127C159.128 32.1408 154.261 32.6097 146.875 33.2491C147.771 33.8459 148.711 34.5279 149.564 35.21L154.517 39.4727L153.706 40.3252L144.057 32.6097L144.654 31.9277Z" fill="#BAC98F"/>
<path d="M162.587 36.5742C167.241 32.6951 171.126 32.3115 173.603 35.1249C176.079 37.9383 174.841 41.7747 170.23 45.6538C165.619 49.5329 161.69 49.9165 159.171 47.1884C156.652 44.4603 157.976 40.4533 162.587 36.5742ZM169.205 44.4176C173.475 40.8796 174.286 37.9383 172.621 35.8922C170.956 33.8461 167.839 34.2297 163.655 37.7678C159.47 41.3058 158.446 44.3324 160.153 46.2932C161.861 48.2541 165.021 47.9557 169.205 44.4176V44.4176Z" fill="#BAC98F"/>
<path d="M168.906 51.4938C169.938 51.0548 171.071 50.9023 172.183 51.0524C173.295 51.2024 174.346 51.6495 175.225 52.3463V52.3463C175.218 51.5041 175.421 50.6734 175.816 49.9292C176.211 49.185 176.786 48.5507 177.488 48.0836C178.063 47.7972 178.69 47.6295 179.332 47.5906C179.974 47.5517 180.617 47.6424 181.223 47.8573C181.829 48.0721 182.385 48.4068 182.858 48.8412C183.332 49.2756 183.712 49.8008 183.978 50.3855C184.378 50.9319 184.657 51.5569 184.797 52.2192C184.936 52.8815 184.934 53.5659 184.788 54.227C184.643 54.8881 184.358 55.5108 183.954 56.0537C183.549 56.5967 183.033 57.0476 182.441 57.3764C181.603 57.7595 180.693 57.9578 179.772 57.9578C178.851 57.9578 177.941 57.7595 177.104 57.3764C177.238 58.3923 177.085 59.4256 176.663 60.3596C176.24 61.2935 175.565 62.091 174.713 62.6621C174.055 62.9462 173.347 63.0953 172.631 63.1005C171.915 63.1057 171.205 62.967 170.544 62.6925C169.882 62.4181 169.283 62.0135 168.782 61.503C168.28 60.9925 167.887 60.3864 167.625 59.7209C167.126 59.1133 166.761 58.4074 166.553 57.6492C166.346 56.8911 166.301 56.0978 166.422 55.3213C166.543 54.5448 166.827 53.8025 167.255 53.1429C167.683 52.4833 168.245 51.9214 168.906 51.4938V51.4938ZM173.944 60.9144C176.335 59.5504 175.737 56.6517 175.225 53.4547C174.451 52.8603 173.533 52.4836 172.564 52.3637C171.596 52.2437 170.613 52.3849 169.717 52.7726C169.249 53.0958 168.851 53.5092 168.545 53.9883C168.24 54.4674 168.033 55.0026 167.938 55.5625C167.842 56.1225 167.86 56.6958 167.989 57.2488C168.119 57.8019 168.358 58.3235 168.692 58.7831C168.883 59.2782 169.173 59.729 169.546 60.1076C169.918 60.4863 170.364 60.7847 170.856 60.9845C171.348 61.1842 171.876 61.2811 172.407 61.269C172.938 61.257 173.461 61.1363 173.944 60.9144V60.9144ZM181.757 55.8844C182.195 55.6486 182.578 55.3236 182.881 54.9304C183.184 54.5372 183.402 54.0847 183.518 53.6023C183.635 53.1199 183.649 52.6183 183.559 52.1302C183.469 51.6421 183.277 51.1784 182.996 50.7691C182.805 50.3508 182.53 49.9759 182.189 49.6675C181.847 49.3592 181.446 49.1238 181.01 48.9761C180.574 48.8283 180.112 48.7712 179.654 48.8084C179.195 48.8455 178.748 48.976 178.342 49.1919C176.164 50.4281 176.506 53.1136 176.975 55.7565C177.709 56.1446 178.522 56.3581 179.351 56.3803C180.181 56.4025 181.004 56.2328 181.757 55.8844V55.8844Z" fill="#BAC98F"/>
<path d="M172.834 66.5837C180.476 70.8464 184.661 72.6368 187.649 71.6564C188.172 71.522 188.659 71.2727 189.073 70.9269C189.487 70.581 189.819 70.1472 190.044 69.6571C190.269 69.167 190.381 68.633 190.373 68.0939C190.365 67.5548 190.237 67.0243 189.998 66.5411C189.69 65.7266 189.204 64.9906 188.577 64.3862C187.949 63.7817 187.195 63.3239 186.369 63.0457L186.924 61.7668C187.91 62.1835 188.799 62.8003 189.534 63.5781C190.269 64.356 190.834 65.2779 191.193 66.2853C191.5 66.9339 191.663 67.6409 191.672 68.3582C191.68 69.0755 191.533 69.7861 191.241 70.4416C190.95 71.0971 190.52 71.682 189.981 72.1565C189.442 72.631 188.807 72.9838 188.119 73.1909C184.746 74.2993 180.348 72.1253 173.773 68.9282C174.2 69.9086 174.627 71.017 174.969 72.04L177.018 78.0931L175.78 78.5193L171.895 67.01L172.834 66.5837Z" fill="#BAC98F"/>
<path d="M178.641 80.267L179.751 81.0343C179.121 81.8083 178.66 82.7042 178.395 83.6654C178.131 84.6266 178.069 85.6321 178.214 86.6185C178.224 87.1597 178.344 87.6932 178.567 88.1868C178.789 88.6803 179.11 89.1238 179.509 89.4903C179.908 89.8568 180.377 90.1388 180.888 90.3192C181.4 90.4997 181.942 90.5748 182.483 90.5402C184.874 90.1991 186.24 88.1104 185.6 83.3362H186.838C187.436 87.5989 189.357 89.0482 191.449 88.7498C191.92 88.6723 192.369 88.4961 192.766 88.2328C193.163 87.9695 193.5 87.625 193.754 87.2222C194.008 86.8194 194.174 86.3673 194.24 85.8959C194.307 85.4244 194.272 84.9443 194.139 84.4871C194.022 83.6458 193.739 82.8359 193.306 82.1043C192.874 81.3727 192.301 80.7338 191.62 80.2244L192.474 79.1587C194.053 80.4069 195.105 82.2024 195.42 84.1887C195.847 87.2579 194.566 89.8155 191.748 90.1991C190.703 90.317 189.648 90.0777 188.757 89.5203C187.865 88.9629 187.189 88.1203 186.838 87.13V87.13C186.88 88.3483 186.466 89.5387 185.677 90.4687C184.887 91.3987 183.779 92.0017 182.569 92.16C181.825 92.2306 181.075 92.1471 180.366 91.9149C179.656 91.6827 179.003 91.3067 178.446 90.8105C177.888 90.3142 177.44 89.7085 177.128 89.0311C176.816 88.3538 176.648 87.6195 176.634 86.8742C176.488 85.6941 176.592 84.4966 176.937 83.3587C177.283 82.2208 177.863 81.1677 178.641 80.267Z" fill="#BAC98F"/>
<path d="M195.335 102.646L195.719 96.3376H197L196.402 110.831H195.121L195.463 104.479L178.085 103.542V101.837L195.335 102.646Z" fill="#BAC98F"/>
<path d="M194.78 118.205L192.133 128.947L190.852 128.649L193.115 119.356L186.497 117.651L184.49 125.367L183.209 125.026L185.259 117.31L177.616 115.307L175.054 124.855L173.773 124.514L176.677 113.431L194.78 118.205Z" fill="#BAC98F"/>
<path d="M175.054 128.308L175.567 129.715C174.509 130.049 173.533 130.601 172.702 131.336C171.871 132.07 171.203 132.97 170.742 133.977C169.418 136.62 169.888 138.965 171.809 139.902C173.731 140.84 175.182 139.902 176.805 138.368L179.238 136.194C179.612 135.67 180.088 135.228 180.637 134.892C181.186 134.557 181.798 134.336 182.435 134.242C183.072 134.148 183.721 134.184 184.344 134.347C184.967 134.509 185.55 134.796 186.059 135.19C186.569 135.583 186.993 136.075 187.307 136.636C187.621 137.197 187.818 137.816 187.887 138.455C187.956 139.094 187.895 139.741 187.707 140.356C187.52 140.971 187.21 141.541 186.796 142.034C186.369 143.02 185.743 143.908 184.957 144.641C184.171 145.375 183.242 145.938 182.227 146.297L181.758 145.018C183.428 144.408 184.793 143.168 185.557 141.565C186.71 139.263 186.326 137.302 184.618 136.322C182.91 135.341 181.117 136.791 179.922 137.856L177.488 140.03C175.609 141.65 173.688 142.886 171.169 141.608C170.508 141.202 169.937 140.665 169.492 140.03C169.047 139.396 168.736 138.677 168.58 137.918C168.424 137.159 168.426 136.376 168.585 135.618C168.743 134.859 169.056 134.141 169.504 133.508C170.014 132.303 170.772 131.217 171.728 130.322C172.684 129.426 173.817 128.74 175.054 128.308V128.308Z" fill="#BAC98F"/>
<path d="M175.993 156.229L179.836 151.199L180.861 151.966L172.321 163.39L171.254 162.58L175.054 157.721L161.263 147.192L162.288 145.828L175.993 156.229Z" fill="#BAC98F"/>
<path d="M162.672 170.509L167.497 166.246L168.351 167.269L157.463 176.69L156.609 175.71L161.434 171.447L150.034 158.36L151.315 157.252L162.672 170.509Z" fill="#BAC98F"/>
<path d="M151.657 180.526L150.248 181.422L140.257 165.692L141.666 164.797L151.657 180.526Z" fill="#BAC98F"/>
<path d="M142.178 186.281L140.129 187.091L132.272 178.566L129.326 175.326V179.589V191.055L127.277 191.908L120.488 174.772L121.94 174.175L126.21 185.13C126.807 186.579 127.448 188.498 127.96 189.99V185.727V174.004L129.198 173.493L137.14 182.018L140.171 185.343C139.531 183.894 138.677 182.061 138.122 180.612L133.852 169.656L135.304 169.102L142.178 186.281Z" fill="#BAC98F"/>
<path d="M117.457 194.423L106.441 196.085V194.806L115.834 193.442L114.852 186.75L106.74 187.773L106.527 186.494L114.425 185.343L113.315 177.542L103.666 179.034V177.713L114.98 176.136L117.457 194.423Z" fill="#BAC98F"/>
<path d="M93.9317 178.523C86.8869 183.553 83.2577 186.451 82.8734 189.521C82.7801 190.04 82.8016 190.573 82.9363 191.083C83.0709 191.594 83.3155 192.068 83.653 192.474C83.9905 192.88 84.4128 193.208 84.8902 193.434C85.3676 193.66 85.8888 193.779 86.4172 193.783C87.287 193.864 88.164 193.757 88.9889 193.47C89.8139 193.184 90.5676 192.723 91.1992 192.121L92.0958 193.144C91.2865 193.859 90.3374 194.399 89.3085 194.729C88.2797 195.059 87.1934 195.173 86.1183 195.062C85.3965 195.07 84.6816 194.921 84.0228 194.627C83.3641 194.332 82.7771 193.898 82.3023 193.355C81.8276 192.812 81.4763 192.173 81.2727 191.482C81.0691 190.79 81.018 190.063 81.1229 189.35C81.5498 185.855 85.3925 182.871 91.37 178.48L88.0823 178.182L81.7206 177.329V176.008L93.7609 177.628L93.9317 178.523Z" fill="#BAC98F"/>
<path d="M76.3407 184.022C74.4194 189.734 71.3453 192.206 67.8015 191.012C64.2577 189.819 63.233 186.025 65.1117 180.313C66.9903 174.601 70.1071 172.043 73.6509 173.194C77.1947 174.345 78.2194 178.31 76.3407 184.022ZM66.606 180.825C64.8555 185.982 65.7094 188.966 68.1431 189.776C70.5768 190.586 73.0958 188.711 74.8037 183.51C76.5115 178.31 75.743 175.198 73.2666 174.388C70.7902 173.578 68.3139 175.624 66.606 180.825Z" fill="#BAC98F"/>
<path d="M64.8553 171.361C56.3161 173.45 52.0464 174.814 50.5094 177.542C50.2188 177.999 50.0317 178.513 49.9612 179.049C49.8907 179.585 49.9384 180.13 50.1011 180.646C50.2638 181.162 50.5376 181.636 50.9031 182.035C51.2686 182.434 51.7172 182.748 52.2172 182.956C53.0114 183.303 53.8692 183.483 54.7363 183.483C55.6034 183.483 56.4612 183.303 57.2554 182.956L57.725 184.235C56.7104 184.614 55.6273 184.775 54.546 184.709C53.4648 184.643 52.4095 184.351 51.4487 183.851C50.7793 183.579 50.1769 183.166 49.6831 182.639C49.1893 182.112 48.8158 181.485 48.5885 180.8C48.3612 180.115 48.2854 179.389 48.3664 178.672C48.4474 177.955 48.6833 177.264 49.0577 176.647C50.8083 173.535 55.5048 172.384 62.6351 170.296L59.6464 168.804L54.0532 165.692L54.6936 164.541L65.3249 170.509L64.8553 171.361Z" fill="#BAC98F"/>
<path d="M51.8329 163.859C43.2937 164.371 38.5971 164.882 36.5904 167.269C36.2151 167.661 35.9315 168.131 35.7601 168.645C35.5887 169.16 35.5337 169.706 35.599 170.244C35.6643 170.782 35.8484 171.299 36.138 171.758C36.4275 172.216 36.8153 172.605 37.2735 172.896C37.9685 173.414 38.7648 173.78 39.6106 173.971C40.4564 174.162 41.333 174.173 42.1836 174.004V175.326C41.1217 175.506 40.0338 175.462 38.9897 175.198C37.9456 174.934 36.9684 174.455 36.1207 173.791C35.5241 173.384 35.023 172.853 34.652 172.234C34.2811 171.615 34.049 170.923 33.9719 170.205C33.8948 169.488 33.9744 168.763 34.2054 168.079C34.4363 167.396 34.813 166.77 35.3095 166.246C37.5724 163.518 42.4397 163.049 49.8262 162.452C48.8984 161.846 48.0139 161.177 47.179 160.449L42.2263 156.442L43.0802 155.376L52.4306 163.134L51.8329 163.859Z" fill="#BAC98F"/>
<path d="M33.9007 159.042C29.2468 162.921 25.3615 163.305 22.9278 160.449C20.4941 157.593 21.6896 153.756 26.3435 149.92C30.9974 146.083 34.8827 145.657 37.4018 148.471C39.9208 151.284 38.4265 155.206 33.9007 159.042ZM27.3682 151.156C23.0986 154.651 22.2446 157.635 23.9098 159.681C25.5749 161.728 28.6491 161.344 32.876 157.849C37.1029 154.353 38.1276 151.327 36.4198 149.323C34.7119 147.32 31.5951 147.661 27.3682 151.156Z" fill="#BAC98F"/>
<path d="M27.71 144.08C26.6663 144.525 25.5194 144.673 24.3966 144.508C23.2737 144.342 22.2187 143.87 21.3483 143.142V143.142C21.3545 143.989 21.1464 144.824 20.7434 145.569C20.3403 146.314 19.7554 146.946 19.0427 147.405C17.9245 147.923 16.6481 147.986 15.4843 147.58C14.3205 147.174 13.3608 146.332 12.8091 145.231C12.4096 144.688 12.1308 144.066 11.9914 143.407C11.852 142.748 11.8552 142.067 12.0007 141.409C12.1462 140.751 12.4307 140.132 12.8352 139.593C13.2397 139.054 13.7548 138.607 14.3461 138.283C15.2012 137.943 16.118 137.787 17.0373 137.824C17.9566 137.861 18.858 138.089 19.6832 138.496V138.496C19.5461 137.481 19.7024 136.449 20.1335 135.52C20.5647 134.591 21.2528 133.804 22.1168 133.253C22.7774 132.995 23.4832 132.872 24.1922 132.892C24.9012 132.912 25.599 133.074 26.2442 133.368C26.8894 133.662 27.4687 134.083 27.9479 134.605C28.4271 135.127 28.7963 135.74 29.0336 136.407C29.8678 137.603 30.1966 139.079 29.9489 140.515C29.7012 141.951 28.8968 143.232 27.71 144.08V144.08ZM14.9012 139.562C14.4638 139.797 14.0809 140.122 13.7775 140.516C13.4742 140.909 13.257 141.361 13.1402 141.844C13.0235 142.326 13.0097 142.828 13.0997 143.316C13.1898 143.804 13.3817 144.268 13.663 144.677C13.8494 145.094 14.1197 145.468 14.4573 145.776C14.7948 146.084 15.1922 146.319 15.6248 146.467C16.0574 146.615 16.5159 146.673 16.9717 146.636C17.4275 146.599 17.8709 146.469 18.2742 146.254C20.4517 145.06 20.1101 142.375 19.6832 139.732C18.9555 139.331 18.1433 139.106 17.3126 139.077C16.4818 139.047 15.6557 139.213 14.9012 139.562V139.562ZM22.7146 134.617C20.3663 135.938 20.9214 138.879 21.4337 142.034C22.1901 142.644 23.1003 143.035 24.0643 143.162C25.0284 143.29 26.0091 143.151 26.8988 142.759C27.3639 142.439 27.7609 142.03 28.0667 141.556C28.3725 141.082 28.5811 140.552 28.6803 139.997C28.7796 139.442 28.7676 138.873 28.645 138.322C28.5225 137.772 28.2917 137.251 27.9662 136.791C27.7747 136.296 27.4845 135.845 27.1133 135.465C26.7421 135.085 26.2975 134.785 25.8066 134.581C25.3156 134.378 24.7884 134.276 24.2569 134.282C23.7255 134.289 23.2008 134.402 22.7146 134.617V134.617Z" fill="#BAC98F"/>
<path d="M23.9096 128.947C16.3097 124.685 12.1255 122.809 9.17943 123.747C8.65187 123.883 8.16089 124.134 7.7413 124.482C7.32172 124.829 6.98381 125.264 6.75155 125.756C6.51929 126.248 6.39837 126.786 6.39737 127.33C6.39637 127.874 6.51531 128.412 6.74575 128.905C7.05674 129.715 7.53758 130.451 8.1561 131.061C8.77462 131.671 9.51655 132.142 10.3322 132.443L9.77718 133.679C8.78218 133.265 7.88688 132.644 7.15075 131.857C6.41461 131.071 5.85448 130.137 5.50756 129.118C5.20714 128.471 5.04787 127.768 5.04032 127.055C5.03277 126.342 5.17711 125.636 5.46376 124.983C5.75041 124.33 6.17283 123.745 6.70301 123.267C7.23319 122.79 7.85902 122.43 8.53899 122.212C11.912 121.104 16.267 123.363 22.8422 126.773C22.4152 125.75 21.9883 124.685 21.6467 123.662L19.64 117.566L20.9209 117.14L24.6781 128.692L23.9096 128.947Z" fill="#BAC98F"/>
<path d="M18.2314 115.093L17.0786 114.411C17.7053 113.643 18.1686 112.756 18.4402 111.803C18.7118 110.85 18.7861 109.852 18.6584 108.87C18.5826 107.792 18.0996 106.783 17.3069 106.047C16.5143 105.311 15.4712 104.903 14.3888 104.906C11.9978 105.247 10.6315 107.293 11.2293 112.067H9.99109C9.43604 107.804 7.51471 106.355 5.4226 106.653C4.94342 106.704 4.48103 106.859 4.06738 107.105C3.65372 107.352 3.29865 107.686 3.02667 108.083C2.75469 108.48 2.57229 108.931 2.49206 109.406C2.41182 109.88 2.43567 110.366 2.56196 110.831C2.67935 111.672 2.96237 112.482 3.39472 113.214C3.82706 113.945 4.40018 114.584 5.08103 115.093L4.22711 116.159C2.6333 114.93 1.58992 113.122 1.32377 111.129C0.896809 108.06 2.22039 105.502 4.99564 105.161C6.03649 105.038 7.08823 105.275 7.97445 105.834C8.86067 106.393 9.52747 107.239 9.863 108.23V108.23C9.84102 107.022 10.2633 105.847 11.05 104.928C11.8367 104.009 12.9333 103.41 14.1326 103.243C17.2494 102.817 19.555 105.204 19.982 108.614C20.1444 109.756 20.073 110.919 19.7721 112.033C19.4712 113.147 18.9471 114.188 18.2314 115.093V115.093Z" fill="#BAC98F"/>
<path d="M1.70785 92.7143L1.28088 99.0231H0L0.896619 84.6577H2.2202L1.79324 91.0092L19.1279 92.1175V93.7799L1.70785 92.7143Z" fill="#BAC98F"/>
<path d="M2.30566 77.1554L5.2517 66.4133L6.48989 66.7543L4.01351 75.9192L10.5887 77.7095L12.8089 69.994L14.0898 70.335L11.9977 78.0506L19.6403 80.0967L22.2021 70.6761L23.483 71.0171L20.4942 82.0575L2.30566 77.1554Z" fill="#BAC98F"/>
<path d="M22.1592 67.2233L21.6896 65.8166C22.7462 65.4796 23.721 64.9266 24.5517 64.1926C25.3824 63.4587 26.0507 62.56 26.5142 61.5538C27.8805 58.9109 27.4108 56.6091 25.4895 55.6287C23.5682 54.6482 22.1592 55.6287 20.4941 57.1206L18.0604 59.252C17.3469 60.1085 16.3806 60.7181 15.2995 60.9937C14.2184 61.2693 13.0776 61.1968 12.0402 60.7865C11.4382 60.4116 10.9192 59.9177 10.5152 59.3354C10.1112 58.753 9.83059 58.0943 9.69066 57.3998C9.55073 56.7052 9.55441 55.9895 9.70147 55.2964C9.84853 54.6034 10.1359 53.9476 10.5459 53.3694C10.9809 52.3885 11.6097 51.5054 12.3947 50.773C13.1797 50.0405 14.1048 49.4738 15.1144 49.1067L15.584 50.3855C13.9161 50.9768 12.5501 52.2027 11.7841 53.7957C10.6313 56.0549 10.9728 58.0584 12.6807 59.0388C14.3885 60.0193 16.1818 58.5699 17.3773 57.5469L19.8109 55.4155C20.5502 54.4909 21.5767 53.8382 22.7285 53.5604C23.8804 53.2825 25.0921 53.3953 26.1727 53.8809C26.827 54.2937 27.3899 54.8356 27.8268 55.4735C28.2637 56.1113 28.5654 56.8316 28.7133 57.5901C28.8613 58.3486 28.8524 59.1293 28.6871 59.8842C28.5219 60.6392 28.2038 61.3524 27.7524 61.9801C27.2445 63.1993 26.4834 64.297 25.5192 65.2008C24.5551 66.1046 23.4099 66.7939 22.1592 67.2233V67.2233Z" fill="#BAC98F"/>
<path d="M21.348 39.4303L17.5054 44.4177L16.438 43.6077L25.2334 32.3115L26.2581 33.0788L22.3728 38.1088L36.0782 48.723L35.0535 50.0445L21.348 39.4303Z" fill="#BAC98F"/>
<path d="M34.7972 25.0223L29.8871 29.1571L29.0332 28.1767L40.0915 18.8413L40.9454 19.8217L36.1208 24.0845L47.3925 37.1284L46.1117 38.3646L34.7972 25.0223Z" fill="#BAC98F"/>
<path d="M45.813 15.2179L47.222 14.3228L57.1275 30.1801L55.7185 31.0326L45.813 15.2179Z" fill="#BAC98F"/>
<path d="M55.5049 9.5059L57.5116 8.52547L65.2823 17.0509L68.2283 20.2906C68.2283 18.8413 68.2283 17.3919 68.2283 16.0279V4.56114L70.2777 3.75122L77.0664 21.3136L75.6148 21.8678L71.3451 10.87C70.7901 9.46327 70.1497 7.50242 69.6373 6.01046V21.8678L68.3137 22.3793L60.4149 13.8539L57.4262 10.5716C58.0667 11.9783 58.9206 13.8539 59.4756 15.2606L63.7452 26.2584L62.3363 26.8126L55.5049 9.5059Z" fill="#BAC98F"/>
<path d="M80.1406 1.53458L91.1989 0V1.27882L81.9766 2.60026L82.8732 9.33536L90.8147 8.22706V9.5485L82.8732 10.6142L83.9406 18.4576L93.9315 17.0509V18.3723L82.5743 19.9069L80.1406 1.53458Z" fill="#BAC98F"/>
</g>
<defs>
<clipPath id="clip0_12_436">
<rect width="197" height="196" fill="white"/>
</clipPath>
</defs>
</svg>
